#!OML:ASF G:\JayActor3\Patient Classification 1\Patient 1\Session 5\male.ASF
:FULLY-SPECIFIED
:DEGREES
601
root -35.212 16.9441 -6.75145 941.285 -95.7361 -946.392
lowerback -2.39327 -0.0383875 3.61328
upperback 2.20399 -0.208987 -0.0141284
thorax 3.60272 -0.0154039 -2.05218
lowerneck -9.05885 -1.7067 1.64351
upperneck 13.4321 -2.97362 2.11303
head 5.55463 -1.26012 0.167833
rclavicle -6.42323e-015 3.57812e-015
rhumerus -27.9958 1.35129 -91.096
rradius 34.3897
rwrist 0.598258
rhand -18.4913 -5.52672
rfingers 7.12502
rthumb 7.79618 -35.363
lclavicle -6.42323e-015 3.57812e-015
lhumerus -33.3479 11.3171 81.1361
lradius 23.1323
lwrist 9.40864
lhand -15.8184 14.5751
lfingers 7.12502
lthumb 10.3753 44.2992
rfemur -4.82199 3.3675 29.0519
rtibia 35.0679
rfoot -24.4961 -13.1219
rtoes 9.55828
lfemur -5.63604 -1.95906 -13.6451
ltibia 26.2159
lfoot -13.7422 -5.46043
ltoes -8.15532
602
root -35.2487 16.9444 -6.7374 941.916 -95.6461 -946.943
lowerback -2.50692 -0.00607169 3.57762
upperback 2.15754 -0.166749 -0.0298725
thorax 3.62141 0.0050338 -2.0464
lowerneck -9.08304 -1.72747 1.62053
upperneck 13.5087 -3.00633 2.13553
head 5.58351 -1.27479 0.175462
rclavicle 9.44227e-016 9.14409e-015
rhumerus -28.2321 1.03934 -91.0741
rradius 33.9065
rwrist 0.893171
rhand -18.3383 -5.52665
rfingers 7.12502
rthumb 7.94384 -35.3574
lclavicle 9.44227e-016 9.14409e-015
lhumerus -33.1121 10.8792 81.3752
lradius 23.7072
lwrist 9.82824
lhand -15.8238 14.7274
lfingers 7.12502
lthumb 10.3701 44.4517
rfemur -4.70219 3.46362 28.9871
rtibia 34.9696
rfoot -24.5665 -13.0522
rtoes 9.52732
lfemur -5.49303 -1.8105 -13.6984
ltibia 26.1091
lfoot -13.8613 -5.52471
ltoes -8.13771
603
root -35.2838 16.9439 -6.72398 942.932 -95.557 -947.885
lowerback -2.59931 0.0341663 3.56448
upperback 2.11474 -0.11448 -0.0371171
thorax 3.63251 0.0307588 -2.04376
lowerneck -9.10227 -1.74753 1.60155
upperneck 13.5482 -3.0364 2.15636
head 5.59985 -1.28844 0.182385
rclavicle 2.48481e-015 3.18055e-015
rhumerus -28.4506 0.708704 -91.0315
rradius 33.3894
rwrist 1.19369
rhand -18.2069 -5.52632
rfingers 7.12502
rthumb 8.07065 -35.3522
lclavicle 2.48481e-015 3.18055e-015
lhumerus -32.8771 10.4505 81.6023
lradius 24.2981
lwrist 10.2316
lhand -15.8594 14.823
lfingers 7.12502
lthumb 10.3358 44.549
rfemur -4.58659 3.59301 28.9634
rtibia 34.8727
rfoot -24.6517 -13.0142
rtoes 9.53747
lfemur -5.3627 -1.64978 -13.7193
ltibia 26.0267
lfoot -13.9851 -5.57989
ltoes -8.10951
604
root -35.3165 16.9432 -6.71013 943.991 -95.4639 -948.87
lowerback -2.66495 0.0745272 3.5569
upperback 2.06848 -0.0610486 -0.0469673
thorax 3.62495 0.056844 -2.0467
lowerneck -9.11232 -1.76511 1.58076
upperneck 13.5583 -3.06183 2.18179
head 5.60557 -1.29994 0.191656
rclavicle 1.28713e-014 -1.82882e-014
rhumerus -28.6549 0.349461 -90.9658
rradius 32.8335
rwrist 1.51341
rhand -18.1034 -5.50516
rfingers 7.12502
rthumb 8.17058 -35.3272
lclavicle 1.28713e-014 -1.82882e-014
lhumerus -32.6508 10.0343 81.8142
lradius 24.9031
lwrist 10.6202
lhand -15.9453 14.8406
lfingers 7.12502
lthumb 10.2529 44.5707
rfemur -4.48315 3.70907 28.9342
rtibia 34.7798
rfoot -24.747 -12.9734
rtoes 9.59606
lfemur -5.25088 -1.48675 -13.7473
ltibia 25.9618
lfoot -14.1057 -5.62758
ltoes -8.06563
605
root -35.3464 16.9422 -6.69625 945.189 -95.3786 -949.994
lowerback -2.70195 0.112814 3.5637
upperback 2.01968 -0.00994404 -0.0543394
thorax 3.59848 0.0816937 -2.05519
lowerneck -9.114 -1.77609 1.55659
upperneck 13.543 -3.07782 2.21689
head 5.60207 -1.30665 0.205451
rclavicle -1.10947e-014 6.36111e-015
rhumerus -28.8386 -0.046252 -90.8736
rradius 32.232
rwrist 1.87311
rhand -18.0186 -5.46803
rfingers 7.12502
rthumb 8.25242 -35.2869
lclavicle -1.10947e-014 6.36111e-015
lhumerus -32.4385 9.62715 82.0119
lradius 25.5252
lwrist 11.0003
lhand -16.0844 14.7612
lfingers 7.12502
lthumb 10.1188 44.4979
rfemur -4.39176 3.82519 28.9208
rtibia 34.6912
rfoot -24.8533 -12.9489
rtoes 9.69359
lfemur -5.15581 -1.31556 -13.7632
ltibia 25.9107
lfoot -14.218 -5.67571
ltoes -8.00371
606
root -35.3737 16.9412 -6.68142 946.211 -95.2935 -950.947
lowerback -2.71358 0.143439 3.56912
upperback 1.97418 0.0320858 -0.0676682
thorax 3.56054 0.101875 -2.06956
lowerneck -9.10731 -1.78297 1.54124
upperneck 13.4968 -3.08697 2.24675
head 5.58723 -1.31032 0.216955
rclavicle -8.44835e-016 1.98785e-015
rhumerus -28.9906 -0.495455 -90.7468
rradius 31.5788
rwrist 2.29881
rhand -17.9452 -5.42916
rfingers 7.12502
rthumb 8.32323 -35.2452
lclavicle -8.44835e-016 1.98785e-015
lhumerus -32.2317 9.23503 82.197
lradius 26.1553
lwrist 11.368
lhand -16.27 14.6294
lfingers 7.12502
lthumb 9.93967 44.3747
rfemur -4.30785 3.90094 28.8833
rtibia 34.6105
rfoot -24.9628 -12.9175
rtoes 9.78455
lfemur -5.069 -1.14158 -13.8005
ltibia 25.8652
lfoot -14.3217 -5.7315
ltoes -7.93828
